<?xml version="1.0" encoding="UTF-8"?>
<svg id="_레이어_1" data-name="레이어 1" xmlns="http://www.w3.org/2000/svg" viewBox="0 0 48.15 77.02">
  <path d="m47.65,35.51c0-1.89-1.53-3.41-3.41-3.41-.79,0-1.52.27-2.1.72-.09-.22-.21-.43-.34-.62.85-.62,1.41-1.62,1.41-2.76,0-1.89-1.53-3.41-3.41-3.41-.3,0-.59.04-.87.12-.14-.81-.57-1.53-1.18-2.04.16-.39.24-.81.24-1.26,0-1.89-1.53-3.41-3.41-3.41-.65,0-1.25.18-1.77.5-.45-.6-1.08-1.05-1.82-1.25.5-.59.79-1.36.79-2.19,0-1.89-1.53-3.41-3.41-3.41-1.56,0-2.87,1.04-3.28,2.46-.24.03-.48.09-.7.16-.35-.12-.73-.19-1.12-.19-.29,0-.58.04-.85.11-.63-.71-1.54-1.16-2.56-1.16-1.89,0-3.41,1.53-3.41,3.41,0,.47.1.92.27,1.33-.39.28-.72.65-.97,1.07-.46-.24-.99-.37-1.54-.37-1.89,0-3.41,1.53-3.41,3.41,0,.31.05.61.12.9-.55.5-.93,1.17-1.06,1.93-.28-.07-.57-.12-.87-.12-1.89,0-3.41,1.53-3.41,3.41,0,1.14.56,2.14,1.41,2.76-.13.19-.25.4-.34.62-.58-.45-1.31-.72-2.1-.72-1.89,0-3.41,1.53-3.41,3.41s1.53,3.41,3.41,3.41h40.01v-.02c1.74-.16,3.1-1.62,3.1-3.4Z" fill="#ffae3c"/>
  <g>
    <g>
      <path d="m13.29,77.02h-3.64c-2.15,0-3.98-1.59-4.27-3.73l-.53-3.87-.59-4.33-.53-3.91-1.77-12.97-1.31-9.61c0-2.63,2.13-4.75,4.75-4.75,1.31,0,2.5.53,3.36,1.39.86.86,1.39,2.05,1.39,3.36l.79,9.61,1.06,12.97.32,3.91.36,4.33.62,7.6Z" fill="#f77c5b"/>
      <path d="m20.69,77.02h-7.4l-3.15-38.42c0-2.62,2.13-4.75,4.75-4.75h0c2.62,0,4.75,2.13,4.75,4.75l1.05,38.42Z" fill="#fdda92"/>
      <path d="m28.1,77.02h-7.41l-1.05-38.42c0-2.62,2.13-4.75,4.75-4.75h0c2.62,0,4.75,2.13,4.75,4.75l-1.05,38.42Z" fill="#f77c5b"/>
      <path d="m35.5,77.02h-7.4l1.05-38.42c0-2.62,2.13-4.75,4.75-4.75h0c2.62,0,4.75,2.13,4.75,4.75l-3.15,38.42Z" fill="#fdda92"/>
      <path d="m48.15,38.61l-1.31,9.61-1.77,12.97-.53,3.91-.59,4.33-.53,3.87c-.29,2.14-2.12,3.73-4.27,3.73h-3.64l.62-7.6.35-4.33.32-3.91,1.06-12.97.79-9.61c0-2.63,2.13-4.75,4.75-4.75,1.31,0,2.5.53,3.36,1.39.86.86,1.39,2.05,1.39,3.36Z" fill="#f77c5b"/>
    </g>
    <path d="m47.98,49.54l-1.47,11.65-.3,2.38c-.11.85-.82,1.5-1.67,1.53-.02,0-.04,0-.07,0H4.32s-.04,0-.06,0c-.85-.03-1.56-.68-1.67-1.53l-.3-2.38-1.47-11.65c-.09-.69.45-1.31,1.15-1.32h44.89c.7.01,1.23.63,1.14,1.32Z" fill="#edf3f3"/>
    <g opacity=".1">
      <path d="m46.51,61.19l-.3,2.38c-.11.85-.82,1.5-1.67,1.53l-.59,4.33H4.84l-.59-4.33c-.85-.03-1.56-.68-1.67-1.53l-.3-2.38h44.23Z" fill="#503d2e"/>
    </g>
  </g>
  <path d="m7.51,18.6c.28-.47.44-1.02.44-1.61,0-1.76-1.42-3.18-3.18-3.18s-3.18,1.42-3.18,3.18c0,.47.1.91.29,1.31-1.1.43-1.88,1.5-1.88,2.75,0,1.64,1.33,2.96,2.96,2.96,1.05,0,1.97-.55,2.49-1.37.2.06.41.09.63.09,1.28,0,2.32-1.04,2.32-2.32,0-.74-.35-1.4-.89-1.82Z" fill="#ffae3c"/>
  <path d="m46.04,14.4c.66-1.09.32-2.52-.78-3.19-.63-.38-1.38-.43-2.02-.19-.26-.48-.64-.9-1.15-1.21-1.5-.91-3.46-.43-4.37,1.07-.91,1.5-.43,3.46,1.07,4.37.4.24.83.38,1.27.44-.2,1.16.31,2.38,1.38,3.03,1.4.85,3.22.4,4.07-.99.54-.89.55-1.96.13-2.84.15-.14.29-.3.4-.49Z" fill="#ffae3c"/>
  <path d="m26.53.48c-1.49-.93-3.45-.47-4.38,1.02-.25.4-.39.83-.45,1.27-1.16-.21-2.39.28-3.05,1.34-.86,1.39-.44,3.21.95,4.08.89.55,1.96.58,2.84.16.14.15.3.29.49.41,1.09.68,2.52.35,3.19-.74.39-.63.44-1.37.21-2.02.48-.25.91-.63,1.22-1.13.93-1.49.47-3.45-1.02-4.38Z" fill="#ffae3c"/>
</svg>