<?xml version="1.0" encoding="UTF-8"?>
<svg id="_레이어_1" data-name="레이어 1" xmlns="http://www.w3.org/2000/svg" viewBox="0 0 79.97 79.97">
  <g>
    <circle cx="39.98" cy="39.98" r="39.98" transform="translate(-16.56 39.98) rotate(-45)" fill="#edf3f3"/>
    <circle cx="39.98" cy="39.98" r="27.36" transform="translate(-16.56 39.98) rotate(-45)" fill="#cdd1d1"/>
  </g>
  <g>
    <rect x="20.21" y="29.88" width="16.36" height="7.89" rx="3.34" ry="3.34" fill="#503d2e"/>
    <path d="m21.16,32h-6.32c-1.22,0-2.21-.99-2.21-2.21h0c0-1.22.99-2.21,2.21-2.21h6.32c1.22,0,2.21.99,2.21,2.21h0c0,1.22-.99,2.21-2.21,2.21Z" fill="#503d2e"/>
    <rect x="48.85" y="42.14" width="15.59" height="7.86" rx="3.55" ry="3.55" fill="#503d2e"/>
    <path d="m64.54,56.87h-3.86c-.79,0-1.43-.64-1.43-1.43h0c0-.79.64-1.43,1.43-1.43h3.86c.79,0,1.43.64,1.43,1.43h0c0,.79-.64,1.43-1.43,1.43Z" fill="#503d2e"/>
    <path d="m63.41,30.35h-4.2c-1.1,0-1.99-.89-1.99-1.99h0c0-1.1.89-1.99,1.99-1.99h4.2c1.1,0,1.99.89,1.99,1.99h0c0,1.1-.89,1.99-1.99,1.99Z" fill="#503d2e"/>
    <path d="m69.04,46.07h-6.91c-1.09,0-1.96-.88-1.96-1.96h0c0-1.09.88-1.96,1.96-1.96h6.91c1.09,0,1.96.88,1.96,1.96h0c0,1.09-.88,1.96-1.96,1.96Z" fill="#503d2e"/>
    <path d="m10.83,45.28h5.7c1.21,0,2.19-.98,2.19-2.19h0c0-1.21-.98-2.19-2.19-2.19h-5.7c-1.21,0-2.19.98-2.19,2.19h0c0,1.21.98,2.19,2.19,2.19Z" fill="#503d2e"/>
  </g>
  <g>
    <path d="m43.87,13.57h0c-8.5,0-15.39,6.89-15.39,15.39v9.64c0,3.05-2.12,5.68-5.1,6.32l-1.37.44c-2.75.88-4.62,3.43-4.62,6.32h0c0,5.69,4.62,10.31,10.31,10.31h13.92c9.74,0,17.64-7.9,17.64-17.64h0v-15.39c0-8.5-6.89-15.39-15.39-15.39Z" fill="#d54b1a"/>
    <path d="m27.7,57.74c-3.34,0-6.07-2.72-6.07-6.07,0-1.04.67-1.96,1.66-2.28l1.2-.38c4.78-1.14,8.23-5.49,8.23-10.42v-9.64c0-6.15,5-11.14,11.14-11.14s11.14,5,11.14,11.14v15.39c0,7.38-6.01,13.39-13.39,13.39h-13.92Z" fill="#f77c5b"/>
    <path d="m41.62,58.8h-13.92c-3.93,0-7.13-3.2-7.13-7.13,0-1.51.96-2.83,2.4-3.29l1.28-.4c.35-.08.66-.18.96-.29.98-.34,1.88-.84,2.7-1.48,1.13-.88,2.07-2.03,2.72-3.31.34-.66.59-1.36.76-2.08.18-.72.27-1.47.27-2.22v-9.64c0-6.73,5.48-12.21,12.21-12.21,5.41,0,10.23,3.63,11.73,8.83.22.75.36,1.53.43,2.3.03.35.05.71.05,1.08v15.39c0,.84-.07,1.68-.21,2.49-.13.76-.33,1.51-.57,2.22-2.01,5.83-7.5,9.75-13.66,9.75Zm-16.84-8.76l-1.16.37c-.55.18-.92.68-.92,1.26,0,2.76,2.25,5.01,5.01,5.01h13.92c5.26,0,9.94-3.34,11.66-8.32.21-.6.37-1.24.49-1.89.12-.69.18-1.41.18-2.12v-15.39c0-.3-.01-.6-.04-.89-.06-.64-.18-1.28-.36-1.9-1.24-4.29-5.22-7.29-9.69-7.29-5.56,0-10.08,4.52-10.08,10.08v9.64c0,.92-.11,1.84-.32,2.72-.21.88-.52,1.74-.93,2.54-.78,1.56-1.93,2.96-3.3,4.03-1,.79-2.11,1.39-3.29,1.81-.35.13-.73.25-1.15.35Z" fill="#d65a2f"/>
    <g>
      <path d="m54.97,27.97c-4.19.83-7.97,2.67-9.78,6.36-2.45,5.01-7.15,8.13-13.61,9.04.37-.73.66-1.51.85-2.31,4.13-.8,8.51-2.85,10.85-7.66,2.17-4.43,6.55-6.59,11.29-7.53.19.68.33,1.38.39,2.1Z" fill="#d65a2f"/>
      <path d="m41.78,45.78c3.8-.33,8.78-.37,13.03.87-.12.7-.3,1.39-.53,2.05-7.44-2.2-17.93-.04-18.05-.01h0c-1.57.44-3.25.67-5.04.67-1.18,0-2.4-.1-3.66-.3-.67-.11-1.32-.23-1.94-.38,1.09-.38,2.1-.94,2.99-1.64,4.33.54,9.43-.05,13.23-4.2,3.39-3.7,8.31-4.5,13.21-4.02v2.15c-4.42-.48-8.77.15-11.65,3.29-.5.54-1.03,1.04-1.59,1.5Z" fill="#d65a2f"/>
    </g>
    <g>
      <path d="m42.29,27.57c0,1.28-1.04,2.31-2.31,2.31s-2.31-1.04-2.31-2.31,1.04-2.31,2.31-2.31,2.31,1.04,2.31,2.31Z" fill="#edf3f3"/>
      <path d="m39.97,30.59c-1.67,0-3.02-1.36-3.02-3.02s1.36-3.02,3.02-3.02,3.02,1.36,3.02,3.02-1.36,3.02-3.02,3.02Zm0-4.63c-.89,0-1.61.72-1.61,1.61s.72,1.61,1.61,1.61,1.61-.72,1.61-1.61-.72-1.61-1.61-1.61Z" fill="#d65a2f"/>
    </g>
  </g>
</svg>