<?xml version="1.0" encoding="UTF-8"?>
<svg id="_레이어_1" data-name="레이어 1" xmlns="http://www.w3.org/2000/svg" viewBox="0 0 82.44 75.04">
  <path d="m0,38.85h82.44v29.28c0,3.81-3.1,6.91-6.91,6.91H6.91c-3.81,0-6.91-3.1-6.91-6.91v-29.28h0Z" fill="#fdda92"/>
  <rect y="50.07" width="82.44" height="13.74" fill="#d65a2f"/>
  <path d="m82.44,38.85s-.67-17.71-14.53-26.53c-1.73-1.1-3.9-1.23-5.78-.41L0,38.85h82.44Z" fill="#503d2e"/>
  <path d="m43.38,71.94h0c-2.25,0-4.06-1.82-4.06-4.06v-29.03h8.13v29.03c0,2.24-1.82,4.06-4.06,4.06Z" fill="#503d2e"/>
  <path d="m35.53,47.21h0c-2.09,0-3.78-1.69-3.78-3.78v-4.58h7.56v4.58c0,2.09-1.69,3.78-3.78,3.78Z" fill="#503d2e"/>
  <path d="m19.53,47.21h0c-2.09,0-3.78-1.69-3.78-3.78v-4.58h7.56v4.58c0,2.09-1.69,3.78-3.78,3.78Z" fill="#503d2e"/>
  <path d="m57.81,45.38h0c-1.8,0-3.26-1.46-3.26-3.26v-3.26h6.53v3.26c0,1.8-1.46,3.26-3.26,3.26Z" fill="#503d2e"/>
  <path d="m69.03,68.05h0c1.61,0,2.92-1.31,2.92-2.92v-26.28h-5.84v26.28c0,1.61,1.31,2.92,2.92,2.92Z" fill="#503d2e"/>
  <g>
    <path d="m69.45,15.19c0,5.39-3.75,11.94-8.38,11.94s-8.38-6.54-8.38-11.94,3.75-7.6,8.38-7.6,8.38,2.2,8.38,7.6Z" fill="#d65a2f"/>
    <path d="m65.69,8.13c0,1.31-2.07,2.37-4.62,2.37s-4.62-1.06-4.62-2.37,2.07-2.37,4.62-2.37,4.62,1.06,4.62,2.37Z" fill="#74b98d"/>
    <path d="m61.06,9.03c-.07,0-.14,0-.22-.03-.49-.12-.79-.61-.68-1.1.04-.18.95-4.41-4.01-6.12-.48-.16-.73-.69-.57-1.16.16-.48.68-.73,1.16-.57,6.56,2.26,5.21,8.22,5.2,8.28-.1.42-.48.7-.89.7Z" fill="#74b98d"/>
  </g>
  <path d="m44.47,34.27h-15.11c-.76,0-1.37-.62-1.37-1.37s.62-1.37,1.37-1.37h15.11c.76,0,1.37.62,1.37,1.37s-.62,1.37-1.37,1.37Z" fill="#edf3f3"/>
  <path d="m54.66,34.27h-3.78c-.76,0-1.37-.62-1.37-1.37s.62-1.37,1.37-1.37h3.78c.76,0,1.37.62,1.37,1.37s-.62,1.37-1.37,1.37Z" fill="#edf3f3"/>
  <path d="m59.58,24.88c-.33,0-.66-.12-.92-.36-2.83-2.57-3.5-8.35-3.57-9-.08-.75.47-1.43,1.22-1.51.76-.08,1.43.47,1.51,1.22.16,1.48.95,5.67,2.69,7.26.56.51.6,1.38.09,1.94-.27.3-.64.45-1.02.45Z" fill="#edf3f3"/>
  <path d="m42.18,67.82c-.76,0-1.37-.61-1.37-1.37v-8.82c0-.76.62-1.37,1.37-1.37s1.37.62,1.37,1.37v8.82c0,.76-.62,1.37-1.37,1.37Z" fill="#edf3f3"/>
  <path d="m69.03,64.62c-.76,0-1.37-.62-1.37-1.37v-4.92c0-.76.62-1.37,1.37-1.37s1.37.61,1.37,1.37v4.92c0,.76-.62,1.37-1.37,1.37Z" fill="#edf3f3"/>
  <path d="m42.18,53.74c-.76,0-1.37-.62-1.37-1.37v-2.29c0-.76.62-1.37,1.37-1.37s1.37.62,1.37,1.37v2.29c0,.76-.62,1.37-1.37,1.37Z" fill="#edf3f3"/>
</svg>