<?xml version="1.0" encoding="UTF-8"?>
<svg id="_레이어_1" data-name="레이어 1" xmlns="http://www.w3.org/2000/svg" viewBox="0 0 82.77 82.77">
  <path d="m41.39,0C18.53,0,0,18.53,0,41.39s18.53,41.39,41.39,41.39,41.39-18.53,41.39-41.39S64.25,0,41.39,0Zm0,53.43c-6.65,0-12.04-5.39-12.04-12.04s5.39-12.04,12.04-12.04,12.04,5.39,12.04,12.04-5.39,12.04-12.04,12.04Z" fill="#503d2e"/>
  <path d="m82.77,41.39h-29.34c0-6.65-5.39-12.04-12.04-12.04s-12.04,5.39-12.04,12.04H0C0,18.53,18.53,0,41.39,0s41.39,18.53,41.39,41.39Z" fill="#f77c5b"/>
  <g>
    <path d="m9.1,49.01h0c-1.79,0-3.24-1.45-3.24-3.24v-4.39h6.48v4.39c0,1.79-1.45,3.24-3.24,3.24Z" fill="#f77c5b"/>
    <path d="m73.68,49.01h0c-1.79,0-3.24-1.45-3.24-3.24v-4.39h6.48v4.39c0,1.79-1.45,3.24-3.24,3.24Z" fill="#f77c5b"/>
    <path d="m18.14,41.39h6.48v15.87c0,1.79-1.45,3.24-3.24,3.24h0c-1.79,0-3.24-1.45-3.24-3.24v-15.87h0Z" fill="#f77c5b"/>
    <path d="m61.17,60.5h0c-1.79,0-3.24-1.45-3.24-3.24v-15.87h6.48v15.87c0,1.79-1.45,3.24-3.24,3.24Z" fill="#f77c5b"/>
  </g>
  <g>
    <path d="m24.51,25.2h0c-.78-.78-.78-2.04,0-2.81l3.3-3.3c.78-.78,2.04-.78,2.81,0h0c.78.78.78,2.04,0,2.81l-3.3,3.3c-.78.78-2.04.78-2.81,0Z" fill="#fdda92"/>
    <path d="m53,27.39h0c-.78-.78-.78-2.04,0-2.81l3.3-3.3c.78-.78,2.04-.78,2.81,0h0c.78.78.78,2.04,0,2.81l-3.3,3.3c-.78.78-2.04.78-2.81,0Z" fill="#fdda92"/>
    <path d="m19.03,31.64h0c-.78.78-2.04.78-2.81,0l-3.3-3.3c-.78-.78-.78-2.04,0-2.81h0c.78-.78,2.04-.78,2.81,0l3.3,3.3c.78.78.78,2.04,0,2.81Z" fill="#fdda92"/>
    <path d="m73.1,28.84h0c-.78.78-2.04.78-2.81,0l-3.3-3.3c-.78-.78-.78-2.04,0-2.81h0c.78-.78,2.04-.78,2.81,0l3.3,3.3c.78.78.78,2.04,0,2.81Z" fill="#fdda92"/>
    <path d="m53.97,13.08h0c-.78.78-2.04.78-2.81,0l-3.3-3.3c-.78-.78-.78-2.04,0-2.81h0c.78-.78,2.04-.78,2.81,0l3.3,3.3c.78.78.78,2.04,0,2.81Z" fill="#fdda92"/>
    <path d="m39.34,13.75h0c-.78.78-2.04.78-2.81,0l-3.3-3.3c-.78-.78-.78-2.04,0-2.81h0c.78-.78,2.04-.78,2.81,0l3.3,3.3c.78.78.78,2.04,0,2.81Z" fill="#fdda92"/>
    <path d="m37.07,21.13h0c0-1.1.89-1.99,1.99-1.99h4.66c1.1,0,1.99.89,1.99,1.99h0c0,1.1-.89,1.99-1.99,1.99h-4.66c-1.1,0-1.99-.89-1.99-1.99Z" fill="#fdda92"/>
    <circle cx="21.13" cy="15.78" r="2.5" fill="#fdda92"/>
    <path d="m66.91,15.78c0,1.38-1.12,2.5-2.5,2.5s-2.5-1.12-2.5-2.5,1.12-2.5,2.5-2.5,2.5,1.12,2.5,2.5Z" fill="#fdda92"/>
    <path d="m62.48,34.38c0,1.38-1.12,2.5-2.5,2.5s-2.5-1.12-2.5-2.5,1.12-2.5,2.5-2.5,2.5,1.12,2.5,2.5Z" fill="#fdda92"/>
  </g>
</svg>