<?xml version="1.0" encoding="UTF-8"?>
<svg id="_레이어_1" data-name="레이어 1" xmlns="http://www.w3.org/2000/svg" viewBox="0 0 79.87 79.87">
  <g>
    <circle cx="39.94" cy="39.94" r="39.94" transform="translate(-16.54 39.94) rotate(-45)" fill="#edf3f3"/>
    <circle cx="39.94" cy="39.94" r="27.32" transform="translate(-16.54 39.94) rotate(-45)" fill="#cdd1d1"/>
  </g>
  <g>
    <g>
      <path d="m58.95,9.12h2.56v2.56c0,5.8-4.71,10.51-10.51,10.51h-2.56v-2.56c0-5.8,4.71-10.51,10.51-10.51Z" transform="translate(5.03 43.46) rotate(-45)" fill="#7bd1df"/>
      <path d="m57.68,18.36h2.56c5.8,0,10.51,4.71,10.51,10.51v2.56h-2.56c-5.8,0-10.51-4.71-10.51-10.51v-2.56h0Z" transform="translate(1.21 52.7) rotate(-45)" fill="#7bd1df"/>
    </g>
    <g>
      <path d="m28.73,24.09h2.14v2.14c0,4.85-3.94,8.79-8.79,8.79h-2.14v-2.14c0-4.85,3.94-8.79,8.79-8.79Z" transform="translate(-13.46 26.62) rotate(-45)" fill="#7bd1df"/>
      <path d="m44.85,49h2.14c4.85,0,8.79,3.94,8.79,8.79v2.14h-2.14c-4.85,0-8.79-3.94-8.79-8.79v-2.14h0Z" transform="translate(-23.77 51.53) rotate(-45)" fill="#7bd1df"/>
    </g>
    <path d="m34.06,64.35l-16.63,3.25c-3.06.6-5.75-2.09-5.15-5.15l3.25-16.63c1.78-9.08,8.31-16.51,17.09-19.42l23.37-7.76c3.24-1.08,6.33,2.01,5.25,5.25l-7.76,23.37c-2.92,8.78-10.34,15.32-19.42,17.09Z" fill="#85f8ff"/>
    <path d="m20.91,55.36c.87.87.87,2.29,0,3.16-.87.87-2.29.87-3.16,0-.87-.87-.87-2.29,0-3.16s2.29-.87,3.16,0Z" fill="#243239"/>
    <circle cx="18.14" cy="56.94" r=".86" fill="#edf3f3"/>
    <g>
      <path d="m33.77,58.96c-.29,0-.56-.19-.65-.49-.86-2.98-2.49-5.73-4.7-7.94-1.89-1.89-4.11-3.33-6.6-4.26-.35-.13-.53-.52-.4-.87.13-.35.52-.53.87-.4,2.67,1,5.05,2.54,7.08,4.57,2.37,2.37,4.12,5.32,5.05,8.52.1.36-.1.73-.46.84-.06.02-.13.03-.19.03Z" fill="#7bd1df"/>
      <path d="m38.02,54.71c-.29,0-.56-.19-.65-.49-.86-2.98-2.49-5.73-4.7-7.94-1.89-1.89-4.11-3.33-6.6-4.26-.35-.13-.53-.52-.4-.87.13-.35.52-.53.87-.4,2.67,1,5.05,2.54,7.08,4.57,2.37,2.37,4.12,5.32,5.05,8.52.1.36-.1.73-.46.84-.06.02-.13.03-.19.03Z" fill="#7bd1df"/>
      <path d="m42.27,50.46c-.29,0-.56-.19-.65-.49-.86-2.98-2.49-5.73-4.7-7.94-1.89-1.89-4.11-3.33-6.6-4.26-.35-.13-.53-.52-.4-.87.13-.35.52-.53.87-.4,2.67,1,5.05,2.54,7.08,4.57,2.37,2.37,4.12,5.32,5.05,8.52.1.36-.1.73-.46.84-.06.02-.13.03-.19.03Z" fill="#7bd1df"/>
    </g>
  </g>
</svg>